<mxfile host="app.diagrams.net" agent="Mozilla/5.0 (Windows NT 10.0; Win64; x64) AppleWebKit/537.36 (KHTML, like Gecko) Chrome/140.0.0.0 Safari/537.36" version="24.8.6">
  <diagram name="Seite-1" id="GDso6J2cdpOIWkt0ecDq">
    <mxGraphModel dx="2074" dy="1116" grid="1" gridSize="10" guides="1" tooltips="1" connect="1" arrows="1" fold="1" page="1" pageScale="1" pageWidth="827" pageHeight="1169" math="0" shadow="0">
      <root>
        <mxCell id="0" />
        <mxCell id="1" parent="0" />
        <mxCell id="6IoawU8fSsD1FMSGB_2r-6" value="Kunde" style="swimlane;fontStyle=0;childLayout=stackLayout;horizontal=1;startSize=30;horizontalStack=0;resizeParent=1;resizeParentMax=0;resizeLast=0;collapsible=1;marginBottom=0;whiteSpace=wrap;html=1;" vertex="1" parent="1">
          <mxGeometry x="100" y="170" width="140" height="120" as="geometry" />
        </mxCell>
        <mxCell id="6IoawU8fSsD1FMSGB_2r-7" value="Name" style="text;strokeColor=none;fillColor=none;align=left;verticalAlign=middle;spacingLeft=4;spacingRight=4;overflow=hidden;points=[[0,0.5],[1,0.5]];portConstraint=eastwest;rotatable=0;whiteSpace=wrap;html=1;" vertex="1" parent="6IoawU8fSsD1FMSGB_2r-6">
          <mxGeometry y="30" width="140" height="30" as="geometry" />
        </mxCell>
        <mxCell id="6IoawU8fSsD1FMSGB_2r-8" value="Adresse" style="text;strokeColor=none;fillColor=none;align=left;verticalAlign=middle;spacingLeft=4;spacingRight=4;overflow=hidden;points=[[0,0.5],[1,0.5]];portConstraint=eastwest;rotatable=0;whiteSpace=wrap;html=1;" vertex="1" parent="6IoawU8fSsD1FMSGB_2r-6">
          <mxGeometry y="60" width="140" height="30" as="geometry" />
        </mxCell>
        <mxCell id="6IoawU8fSsD1FMSGB_2r-9" value="Firmenbuchnummer" style="text;strokeColor=none;fillColor=none;align=left;verticalAlign=middle;spacingLeft=4;spacingRight=4;overflow=hidden;points=[[0,0.5],[1,0.5]];portConstraint=eastwest;rotatable=0;whiteSpace=wrap;html=1;" vertex="1" parent="6IoawU8fSsD1FMSGB_2r-6">
          <mxGeometry y="90" width="140" height="30" as="geometry" />
        </mxCell>
        <mxCell id="6IoawU8fSsD1FMSGB_2r-10" value="Ausgefüllte Formblätter nach ÖNORM 4710-1" style="swimlane;fontStyle=0;childLayout=stackLayout;horizontal=1;startSize=30;horizontalStack=0;resizeParent=1;resizeParentMax=0;resizeLast=0;collapsible=1;marginBottom=0;whiteSpace=wrap;html=1;" vertex="1" parent="1">
          <mxGeometry x="490" y="170" width="140" height="90" as="geometry" />
        </mxCell>
        <mxCell id="6IoawU8fSsD1FMSGB_2r-11" value="Formblatt 1-1&amp;nbsp;" style="text;strokeColor=none;fillColor=none;align=left;verticalAlign=middle;spacingLeft=4;spacingRight=4;overflow=hidden;points=[[0,0.5],[1,0.5]];portConstraint=eastwest;rotatable=0;whiteSpace=wrap;html=1;" vertex="1" parent="6IoawU8fSsD1FMSGB_2r-10">
          <mxGeometry y="30" width="140" height="30" as="geometry" />
        </mxCell>
        <mxCell id="6IoawU8fSsD1FMSGB_2r-12" value="Formblatt 1-2" style="text;strokeColor=none;fillColor=none;align=left;verticalAlign=middle;spacingLeft=4;spacingRight=4;overflow=hidden;points=[[0,0.5],[1,0.5]];portConstraint=eastwest;rotatable=0;whiteSpace=wrap;html=1;" vertex="1" parent="6IoawU8fSsD1FMSGB_2r-10">
          <mxGeometry y="60" width="140" height="30" as="geometry" />
        </mxCell>
        <mxCell id="6IoawU8fSsD1FMSGB_2r-15" value="erstellt" style="text;html=1;align=center;verticalAlign=middle;whiteSpace=wrap;rounded=0;" vertex="1" parent="1">
          <mxGeometry x="340" y="215" width="60" height="30" as="geometry" />
        </mxCell>
        <mxCell id="6IoawU8fSsD1FMSGB_2r-16" value="1" style="text;html=1;align=center;verticalAlign=middle;whiteSpace=wrap;rounded=0;" vertex="1" parent="1">
          <mxGeometry x="240" y="215" width="60" height="30" as="geometry" />
        </mxCell>
        <mxCell id="6IoawU8fSsD1FMSGB_2r-17" value="0..*" style="text;html=1;align=center;verticalAlign=middle;whiteSpace=wrap;rounded=0;" vertex="1" parent="1">
          <mxGeometry x="440" y="215" width="60" height="30" as="geometry" />
        </mxCell>
        <mxCell id="6IoawU8fSsD1FMSGB_2r-19" value="SMG" style="swimlane;fontStyle=0;childLayout=stackLayout;horizontal=1;startSize=30;horizontalStack=0;resizeParent=1;resizeParentMax=0;resizeLast=0;collapsible=1;marginBottom=0;whiteSpace=wrap;html=1;" vertex="1" parent="1">
          <mxGeometry x="490" y="390" width="140" height="90" as="geometry" />
        </mxCell>
        <mxCell id="6IoawU8fSsD1FMSGB_2r-20" value="Adresse" style="text;strokeColor=none;fillColor=none;align=left;verticalAlign=middle;spacingLeft=4;spacingRight=4;overflow=hidden;points=[[0,0.5],[1,0.5]];portConstraint=eastwest;rotatable=0;whiteSpace=wrap;html=1;" vertex="1" parent="6IoawU8fSsD1FMSGB_2r-19">
          <mxGeometry y="30" width="140" height="30" as="geometry" />
        </mxCell>
        <mxCell id="6IoawU8fSsD1FMSGB_2r-22" value="Sachbearbeiter" style="text;strokeColor=none;fillColor=none;align=left;verticalAlign=middle;spacingLeft=4;spacingRight=4;overflow=hidden;points=[[0,0.5],[1,0.5]];portConstraint=eastwest;rotatable=0;whiteSpace=wrap;html=1;" vertex="1" parent="6IoawU8fSsD1FMSGB_2r-19">
          <mxGeometry y="60" width="140" height="30" as="geometry" />
        </mxCell>
        <mxCell id="6IoawU8fSsD1FMSGB_2r-24" value="erhält" style="text;html=1;align=center;verticalAlign=middle;whiteSpace=wrap;rounded=0;rotation=-90;" vertex="1" parent="1">
          <mxGeometry x="520" y="310" width="60" height="30" as="geometry" />
        </mxCell>
        <mxCell id="6IoawU8fSsD1FMSGB_2r-25" value="" style="endArrow=classic;html=1;rounded=0;exitX=0;exitY=1;exitDx=0;exitDy=0;entryX=0;entryY=0.5;entryDx=0;entryDy=0;" edge="1" parent="1" source="6IoawU8fSsD1FMSGB_2r-16" target="6IoawU8fSsD1FMSGB_2r-12">
          <mxGeometry width="50" height="50" relative="1" as="geometry">
            <mxPoint x="390" y="450" as="sourcePoint" />
            <mxPoint x="440" y="400" as="targetPoint" />
          </mxGeometry>
        </mxCell>
        <mxCell id="6IoawU8fSsD1FMSGB_2r-26" value="" style="endArrow=classic;html=1;rounded=0;entryX=0.5;entryY=0;entryDx=0;entryDy=0;" edge="1" parent="1" source="6IoawU8fSsD1FMSGB_2r-12" target="6IoawU8fSsD1FMSGB_2r-19">
          <mxGeometry width="50" height="50" relative="1" as="geometry">
            <mxPoint x="560" y="260" as="sourcePoint" />
            <mxPoint x="440" y="400" as="targetPoint" />
          </mxGeometry>
        </mxCell>
        <mxCell id="6IoawU8fSsD1FMSGB_2r-27" value="" style="endArrow=classic;html=1;rounded=0;exitX=0;exitY=0.5;exitDx=0;exitDy=0;entryX=1;entryY=0.5;entryDx=0;entryDy=0;" edge="1" parent="1" source="6IoawU8fSsD1FMSGB_2r-20" target="6IoawU8fSsD1FMSGB_2r-29">
          <mxGeometry width="50" height="50" relative="1" as="geometry">
            <mxPoint x="390" y="450" as="sourcePoint" />
            <mxPoint x="250" y="442" as="targetPoint" />
          </mxGeometry>
        </mxCell>
        <mxCell id="6IoawU8fSsD1FMSGB_2r-28" value="ID Prüfungs Daten" style="swimlane;fontStyle=0;childLayout=stackLayout;horizontal=1;startSize=30;horizontalStack=0;resizeParent=1;resizeParentMax=0;resizeLast=0;collapsible=1;marginBottom=0;whiteSpace=wrap;html=1;" vertex="1" parent="1">
          <mxGeometry x="110" y="390" width="140" height="150" as="geometry" />
        </mxCell>
        <mxCell id="6IoawU8fSsD1FMSGB_2r-29" value="Formblatt 3-1" style="text;strokeColor=none;fillColor=none;align=left;verticalAlign=middle;spacingLeft=4;spacingRight=4;overflow=hidden;points=[[0,0.5],[1,0.5]];portConstraint=eastwest;rotatable=0;whiteSpace=wrap;html=1;" vertex="1" parent="6IoawU8fSsD1FMSGB_2r-28">
          <mxGeometry y="30" width="140" height="30" as="geometry" />
        </mxCell>
        <mxCell id="6IoawU8fSsD1FMSGB_2r-30" value="Formblatt 3-2" style="text;strokeColor=none;fillColor=none;align=left;verticalAlign=middle;spacingLeft=4;spacingRight=4;overflow=hidden;points=[[0,0.5],[1,0.5]];portConstraint=eastwest;rotatable=0;whiteSpace=wrap;html=1;" vertex="1" parent="6IoawU8fSsD1FMSGB_2r-28">
          <mxGeometry y="60" width="140" height="30" as="geometry" />
        </mxCell>
        <mxCell id="6IoawU8fSsD1FMSGB_2r-43" value="ID Excel Datei" style="text;strokeColor=none;fillColor=none;align=left;verticalAlign=middle;spacingLeft=4;spacingRight=4;overflow=hidden;points=[[0,0.5],[1,0.5]];portConstraint=eastwest;rotatable=0;whiteSpace=wrap;html=1;" vertex="1" parent="6IoawU8fSsD1FMSGB_2r-28">
          <mxGeometry y="90" width="140" height="30" as="geometry" />
        </mxCell>
        <mxCell id="6IoawU8fSsD1FMSGB_2r-31" value="ID Bericht" style="text;strokeColor=none;fillColor=none;align=left;verticalAlign=middle;spacingLeft=4;spacingRight=4;overflow=hidden;points=[[0,0.5],[1,0.5]];portConstraint=eastwest;rotatable=0;whiteSpace=wrap;html=1;" vertex="1" parent="6IoawU8fSsD1FMSGB_2r-28">
          <mxGeometry y="120" width="140" height="30" as="geometry" />
        </mxCell>
        <mxCell id="6IoawU8fSsD1FMSGB_2r-32" value="erstellt" style="text;html=1;align=center;verticalAlign=middle;whiteSpace=wrap;rounded=0;" vertex="1" parent="1">
          <mxGeometry x="340" y="411" width="60" height="30" as="geometry" />
        </mxCell>
        <mxCell id="6IoawU8fSsD1FMSGB_2r-36" value="1" style="text;html=1;align=center;verticalAlign=middle;whiteSpace=wrap;rounded=0;" vertex="1" parent="1">
          <mxGeometry x="430" y="404" width="60" height="30" as="geometry" />
        </mxCell>
        <mxCell id="6IoawU8fSsD1FMSGB_2r-38" value="0..*" style="text;html=1;align=center;verticalAlign=middle;whiteSpace=wrap;rounded=0;" vertex="1" parent="1">
          <mxGeometry x="250" y="404" width="60" height="30" as="geometry" />
        </mxCell>
        <mxCell id="6IoawU8fSsD1FMSGB_2r-39" value="Forschungsdaten" style="swimlane;fontStyle=0;childLayout=stackLayout;horizontal=1;startSize=30;horizontalStack=0;resizeParent=1;resizeParentMax=0;resizeLast=0;collapsible=1;marginBottom=0;whiteSpace=wrap;html=1;" vertex="1" parent="1">
          <mxGeometry x="260" y="590" width="140" height="120" as="geometry" />
        </mxCell>
        <mxCell id="6IoawU8fSsD1FMSGB_2r-40" value="Excel Vorlage Mischungsverhältnisse" style="text;strokeColor=none;fillColor=none;align=left;verticalAlign=middle;spacingLeft=4;spacingRight=4;overflow=hidden;points=[[0,0.5],[1,0.5]];portConstraint=eastwest;rotatable=0;whiteSpace=wrap;html=1;" vertex="1" parent="6IoawU8fSsD1FMSGB_2r-39">
          <mxGeometry y="30" width="140" height="30" as="geometry" />
        </mxCell>
        <mxCell id="6IoawU8fSsD1FMSGB_2r-41" value="Excel Vorlage XF2 XF4&amp;nbsp;" style="text;strokeColor=none;fillColor=none;align=left;verticalAlign=middle;spacingLeft=4;spacingRight=4;overflow=hidden;points=[[0,0.5],[1,0.5]];portConstraint=eastwest;rotatable=0;whiteSpace=wrap;html=1;" vertex="1" parent="6IoawU8fSsD1FMSGB_2r-39">
          <mxGeometry y="60" width="140" height="30" as="geometry" />
        </mxCell>
        <mxCell id="6IoawU8fSsD1FMSGB_2r-42" value="Excel Vorlage Karbonatisierung" style="text;strokeColor=none;fillColor=none;align=left;verticalAlign=middle;spacingLeft=4;spacingRight=4;overflow=hidden;points=[[0,0.5],[1,0.5]];portConstraint=eastwest;rotatable=0;whiteSpace=wrap;html=1;" vertex="1" parent="6IoawU8fSsD1FMSGB_2r-39">
          <mxGeometry y="90" width="140" height="30" as="geometry" />
        </mxCell>
        <mxCell id="6IoawU8fSsD1FMSGB_2r-44" value="" style="endArrow=classic;html=1;rounded=0;" edge="1" parent="1" source="6IoawU8fSsD1FMSGB_2r-19" target="6IoawU8fSsD1FMSGB_2r-39">
          <mxGeometry width="50" height="50" relative="1" as="geometry">
            <mxPoint x="534" y="520" as="sourcePoint" />
            <mxPoint x="294" y="520" as="targetPoint" />
            <Array as="points">
              <mxPoint x="560" y="650" />
            </Array>
          </mxGeometry>
        </mxCell>
        <mxCell id="6IoawU8fSsD1FMSGB_2r-45" value="erstellt" style="text;html=1;align=center;verticalAlign=middle;whiteSpace=wrap;rounded=0;" vertex="1" parent="1">
          <mxGeometry x="480" y="620" width="60" height="30" as="geometry" />
        </mxCell>
        <mxCell id="6IoawU8fSsD1FMSGB_2r-46" value="1" style="text;html=1;align=center;verticalAlign=middle;whiteSpace=wrap;rounded=0;" vertex="1" parent="1">
          <mxGeometry x="500" y="480" width="60" height="30" as="geometry" />
        </mxCell>
        <mxCell id="6IoawU8fSsD1FMSGB_2r-47" value="0..*" style="text;html=1;align=center;verticalAlign=middle;whiteSpace=wrap;rounded=0;" vertex="1" parent="1">
          <mxGeometry x="400" y="620" width="60" height="30" as="geometry" />
        </mxCell>
        <mxCell id="6IoawU8fSsD1FMSGB_2r-48" value="SMG Datenbank" style="swimlane;fontStyle=0;childLayout=stackLayout;horizontal=1;startSize=30;horizontalStack=0;resizeParent=1;resizeParentMax=0;resizeLast=0;collapsible=1;marginBottom=0;whiteSpace=wrap;html=1;" vertex="1" parent="1">
          <mxGeometry x="687" y="390" width="140" height="120" as="geometry" />
        </mxCell>
        <mxCell id="6IoawU8fSsD1FMSGB_2r-49" value="Item 1" style="text;strokeColor=none;fillColor=none;align=left;verticalAlign=middle;spacingLeft=4;spacingRight=4;overflow=hidden;points=[[0,0.5],[1,0.5]];portConstraint=eastwest;rotatable=0;whiteSpace=wrap;html=1;" vertex="1" parent="6IoawU8fSsD1FMSGB_2r-48">
          <mxGeometry y="30" width="140" height="30" as="geometry" />
        </mxCell>
        <mxCell id="6IoawU8fSsD1FMSGB_2r-50" value="Item 2" style="text;strokeColor=none;fillColor=none;align=left;verticalAlign=middle;spacingLeft=4;spacingRight=4;overflow=hidden;points=[[0,0.5],[1,0.5]];portConstraint=eastwest;rotatable=0;whiteSpace=wrap;html=1;" vertex="1" parent="6IoawU8fSsD1FMSGB_2r-48">
          <mxGeometry y="60" width="140" height="30" as="geometry" />
        </mxCell>
        <mxCell id="6IoawU8fSsD1FMSGB_2r-51" value="Item 3" style="text;strokeColor=none;fillColor=none;align=left;verticalAlign=middle;spacingLeft=4;spacingRight=4;overflow=hidden;points=[[0,0.5],[1,0.5]];portConstraint=eastwest;rotatable=0;whiteSpace=wrap;html=1;" vertex="1" parent="6IoawU8fSsD1FMSGB_2r-48">
          <mxGeometry y="90" width="140" height="30" as="geometry" />
        </mxCell>
      </root>
    </mxGraphModel>
  </diagram>
</mxfile>
